<svg
  xmlns="http://www.w3.org/2000/svg"
  width="800"
  viewBox="0 0 800 250"
  height="250"
  fill="none">
  <g>
    <path
      id="path2"
      fill-rule="evenodd"
      fill="#ffffff"
      d="m 435.07817,168.697 v -9.373 c 8.556,5.419 17.222,8.128 26,8.128 9.333,0 16.417,-1.921 21.25,-5.764 4.833,-3.843 7.25,-9.22 7.25,-16.132 0,-6.082 -1.625,-10.934 -4.875,-14.556 -3.134,-3.492 -9.793,-8.205 -19.979,-14.14 l -1.146,-0.664 c -12.111,-7.023 -19.778,-12.898 -23,-17.625 -3.222,-4.728 -4.833,-10.188 -4.833,-16.381 0,-8.4045 3.277,-15.5372 9.833,-21.3984 6.556,-5.8611 15.306,-8.7916 26.25,-8.7916 7.111,0 14.222,1.1888 21.333,3.5664 v 8.6258 c -7,-3.1518 -14.472,-4.7276 -22.416,-4.7276 -8.111,0 -14.542,2.0458 -19.292,6.1376 -4.75,4.0917 -7.125,9.2892 -7.125,15.5928 0,6.082 1.625,10.92 4.875,14.514 3.25,3.594 10.264,8.488 21.042,14.681 11.166,6.303 18.597,11.902 22.291,16.795 3.695,4.894 5.542,10.52 5.542,16.878 0,9.124 -3.181,16.561 -9.542,22.311 -6.361,5.751 -15.347,8.626 -26.958,8.626 -4.111,0 -8.847,-0.636 -14.208,-1.908 -5.361,-1.271 -9.459,-2.737 -12.292,-4.395 z m -296.172,-97.9341 h 34.172 V 54 h -88 v 16.7629 h 34.089 V 173 h 19.739 z m 65.672,115.8431 38.5,-98.606 h -19.5 l -21.333,61.919 c -0.506,1.898 -0.903,3.443 -1.19,4.636 l -0.31,1.34 h -0.417 c -0.444,-1.897 -0.798,-3.379 -1.061,-4.445 l -0.439,-1.697 L 178.49517,88 h -21.417 l 33.917,84.827 -5.75,13.945 c -3.556,7.082 -8.945,10.624 -16.167,10.624 -2.5,0 -5.278,-0.498 -8.333,-1.494 v 16.019 c 2.722,0.719 6.111,1.079 10.166,1.079 14.445,0 25.667,-8.798 33.667,-26.394 z m 70.147,-26.2 h -0.333 V 212 h -19.314 V 87.991 h 19.314 v 14.931 h 0.333 c 6.604,-11.282 16.261,-16.922 28.971,-16.922 10.822,0 19.258,3.788 25.308,11.364 6.049,7.576 9.074,17.751 9.074,30.525 0,14.157 -3.413,25.493 -10.24,34.01 -6.826,8.516 -16.15,12.774 -27.972,12.774 -10.878,0 -19.258,-4.756 -25.141,-14.267 z m -0.647,-22.517 v -10.478 c 0,-7.26 2.093,-13.31 6.28,-18.151 4.186,-4.84 9.717,-7.26 16.593,-7.26 6.488,0 11.631,2.351 15.429,7.054 3.799,4.703 5.698,11.207 5.698,19.512 0,9.901 -2.038,17.615 -6.113,23.142 -4.076,5.528 -9.69,8.292 -16.844,8.292 -6.099,0 -11.131,-2.145 -15.096,-6.435 -3.965,-4.29 -5.947,-9.516 -5.947,-15.676 z m 151,-2.159 h -57.606 c 0.221,7.86 2.628,13.92 7.222,18.182 4.594,4.262 10.907,6.393 18.94,6.393 9.024,0 17.304,-2.712 24.842,-8.136 v 15.525 c -7.703,4.871 -17.882,7.306 -30.536,7.306 -12.435,0 -22.187,-3.861 -29.257,-11.582 -7.07,-7.721 -10.605,-18.583 -10.605,-32.586 0,-13.228 3.893,-24.007 11.678,-32.337 7.785,-8.33 17.455,-12.495 29.009,-12.495 11.554,0 20.495,3.736 26.822,11.208 6.327,7.472 9.491,17.85 9.491,31.133 z m -22.854,-29.938 c 3.181,3.861 4.799,9.264 4.854,16.208 h -39 c 0.878,-6.556 3.223,-11.861 7.035,-15.917 3.812,-4.055 8.461,-6.083 13.946,-6.083 5.595,0 9.983,1.931 13.165,5.792 z M 546.98517,175 c 8.813,0 16.399,-1.934 22.758,-5.801 v -7.955 c -6.359,4.53 -13.833,6.795 -22.423,6.795 -9.372,0 -16.916,-3.342 -22.633,-10.027 -5.718,-6.685 -8.577,-15.524 -8.577,-26.518 0,-11.38 3.124,-20.647 9.372,-27.802 6.247,-7.154 14.391,-10.731 24.431,-10.731 7.308,0 14.029,1.878 20.165,5.635 v -8.618 c -6.136,-2.652 -12.467,-3.978 -18.993,-3.978 -12.607,0 -22.926,4.295 -30.958,12.886 -8.033,8.591 -12.049,19.626 -12.049,33.106 0,12.817 3.57,23.189 10.71,31.116 7.14,7.928 16.539,11.892 28.197,11.892 z m 73.093,-79.333 c -2.54,-1.834 -5.521,-2.75 -8.944,-2.75 -6.681,0 -12.284,3.472 -16.812,10.416 -4.527,6.945 -6.791,16.806 -6.791,29.584 V 173 h -7.453 V 87.667 h 7.453 v 18.916 h 0.332 c 1.932,-6.5 4.996,-11.555 9.192,-15.166 4.196,-3.611 9.055,-5.417 14.576,-5.417 3.147,0 5.963,0.5 8.447,1.5 z m 11.942,-30.5486 c 1.294,1.2544 2.785,1.8816 4.474,1.8816 1.8,0 3.348,-0.6557 4.642,-1.9671 1.295,-1.3114 1.942,-2.8794 1.942,-4.704 0,-1.9386 -0.661,-3.478 -1.984,-4.6184 -1.322,-1.1403 -2.856,-1.7105 -4.6,-1.7105 -1.632,0 -3.11,0.5844 -4.432,1.7533 -1.323,1.1689 -1.984,2.6941 -1.984,4.5756 0,1.9387 0.647,3.5351 1.942,4.7895 z M 632.07817,173 V 88 h 8 v 85 z m 33.624,-15.13 h 0.331 c 6.077,11.439 15.469,17.159 28.175,17.159 11.38,0 20.537,-4.38 27.47,-13.139 6.933,-8.759 10.4,-20.24 10.4,-34.443 0,-12.765 -3.025,-22.865 -9.074,-30.298 -6.049,-7.433 -14.46,-11.149 -25.233,-11.149 -6.795,0 -13.024,1.699 -18.686,5.098 -5.663,3.399 -10.013,8.22 -13.052,14.465 h -0.331 V 88.072 h -7.624 V 212 h 7.624 z m 0.376,-31.592 v 10.679 c 0,8.499 2.706,15.797 8.118,21.896 5.412,6.098 12.525,9.147 21.34,9.147 8.76,0 15.873,-3.711 21.341,-11.134 5.467,-7.423 8.201,-17.177 8.201,-29.263 0,-10.596 -2.511,-19.012 -7.532,-25.249 -5.021,-6.236 -11.716,-9.354 -20.085,-9.354 -9.987,0 -17.714,3.311 -23.182,9.934 -5.467,6.622 -8.201,14.404 -8.201,23.344 z M 768.95217,175 c 3.461,0 7.17,-0.938 11.126,-2.814 v -7.119 c -3.626,2.042 -7.005,3.063 -10.137,3.063 -4.396,0 -7.514,-1.311 -9.355,-3.932 -1.84,-2.621 -2.761,-6.856 -2.761,-12.706 V 95.537 h 22.253 v -6.953 h -22.253 V 64 c -1.209,0.4415 -2.472,0.8553 -3.791,1.2416 -1.319,0.4415 -2.582,0.8829 -3.791,1.3244 v 22.018 h -15.165 v 6.953 h 15.165 v 56.948 c 0,15.01 6.236,22.515 18.709,22.515 z"
      clip-rule="evenodd"/>
  </g>
</svg>
